<svg xmlns="http://www.w3.org/2000/svg" width="1600" height="854" viewBox="0 0 1600 854"><rect width="100%" height="100%" fill="#f7f4ec"/><rect width="1552" height="806" x="24" y="24" fill="#fffefb" stroke="#d6ddd8" rx="18"/><text x="52" y="72" fill="#1f2623" font-family="Segoe UI, Arial, sans-serif" font-size="40" font-weight="700">BullshitBench - Models Answering Nonsense Questions</text><text x="52" y="104" fill="#5f6f6a" font-family="Segoe UI, Arial, sans-serif" font-size="22">Main chart: top 12 models by Clear Pushback rate</text><rect width="16" height="16" x="960" y="54" fill="#1f9d55" rx="8"/><text x="984" y="68" fill="#1f2623" font-family="Segoe UI, Arial, sans-serif" font-size="18">Clear Pushback</text><rect width="16" height="16" x="1165" y="54" fill="#d88710" rx="8"/><text x="1189" y="68" fill="#1f2623" font-family="Segoe UI, Arial, sans-serif" font-size="18">Partial Challenge</text><rect width="16" height="16" x="1370" y="54" fill="#c13d36" rx="8"/><text x="1394" y="68" fill="#1f2623" font-family="Segoe UI, Arial, sans-serif" font-size="18">Accepted Nonsense</text><line x1="380" x2="380" y1="142" y2="782" stroke="#d6ddd8" stroke-width="1"/><text x="380" y="808" fill="#5f6f6a" font-family="Segoe UI, Arial, sans-serif" font-size="14" text-anchor="middle">0%</text><line x1="606" x2="606" y1="142" y2="782" stroke="#d6ddd8" stroke-width="1"/><text x="606" y="808" fill="#5f6f6a" font-family="Segoe UI, Arial, sans-serif" font-size="14" text-anchor="middle">20%</text><line x1="832" x2="832" y1="142" y2="782" stroke="#d6ddd8" stroke-width="1"/><text x="832" y="808" fill="#5f6f6a" font-family="Segoe UI, Arial, sans-serif" font-size="14" text-anchor="middle">40%</text><line x1="1058" x2="1058" y1="142" y2="782" stroke="#d6ddd8" stroke-width="1"/><text x="1058" y="808" fill="#5f6f6a" font-family="Segoe UI, Arial, sans-serif" font-size="14" text-anchor="middle">60%</text><line x1="1284" x2="1284" y1="142" y2="782" stroke="#d6ddd8" stroke-width="1"/><text x="1284" y="808" fill="#5f6f6a" font-family="Segoe UI, Arial, sans-serif" font-size="14" text-anchor="middle">80%</text><line x1="1510" x2="1510" y1="142" y2="782" stroke="#d6ddd8" stroke-width="1"/><text x="1510" y="808" fill="#5f6f6a" font-family="Segoe UI, Arial, sans-serif" font-size="14" text-anchor="middle">100%</text><text x="368" y="182" fill="#1f2623" font-family="Segoe UI, Arial, sans-serif" font-size="20" text-anchor="end">1. anthropic/claude-sonnet-4.6 (none)</text><rect width="1130" height="30" x="380" y="161" fill="#eef3f0" stroke="#d6ddd8" rx="15"/><rect width="1068.41" height="30" x="380" y="161" fill="#1f9d55" rx="15"/><rect width="20.57" height="30" x="1448.41" y="161" fill="#c13d36" rx="15"/><text x="914.21" y="181" fill="#fff" font-family="Segoe UI, Arial, sans-serif" font-size="16" font-weight="700" text-anchor="middle">94.5%</text><text x="368" y="234" fill="#1f2623" font-family="Segoe UI, Arial, sans-serif" font-size="20" text-anchor="end">2. anthropic/claude-sonnet-4.6 (high)</text><rect width="1130" height="30" x="380" y="213" fill="#eef3f0" stroke="#d6ddd8" rx="15"/><rect width="1047.85" height="30" x="380" y="213" fill="#1f9d55" rx="15"/><text x="903.92" y="233" fill="#fff" font-family="Segoe UI, Arial, sans-serif" font-size="16" font-weight="700" text-anchor="middle">92.7%</text><text x="368" y="286" fill="#1f2623" font-family="Segoe UI, Arial, sans-serif" font-size="20" text-anchor="end">3. anthropic/claude-opus-4.6 (none)</text><rect width="1130" height="30" x="380" y="265" fill="#eef3f0" stroke="#d6ddd8" rx="15"/><rect width="1047.85" height="30" x="380" y="265" fill="#1f9d55" rx="15"/><rect width="20.57" height="30" x="1427.85" y="265" fill="#c13d36" rx="15"/><text x="903.92" y="285" fill="#fff" font-family="Segoe UI, Arial, sans-serif" font-size="16" font-weight="700" text-anchor="middle">92.7%</text><text x="368" y="338" fill="#1f2623" font-family="Segoe UI, Arial, sans-serif" font-size="20" text-anchor="end">4. anthropic/claude-opus-4.5 (high)</text><rect width="1130" height="30" x="380" y="317" fill="#eef3f0" stroke="#d6ddd8" rx="15"/><rect width="1027.28" height="30" x="380" y="317" fill="#1f9d55" rx="15"/><text x="893.64" y="337" fill="#fff" font-family="Segoe UI, Arial, sans-serif" font-size="16" font-weight="700" text-anchor="middle">90.9%</text><text x="368" y="390" fill="#1f2623" font-family="Segoe UI, Arial, sans-serif" font-size="20" text-anchor="end">5. anthropic/claude-opus-4.6 (high)</text><rect width="1130" height="30" x="380" y="369" fill="#eef3f0" stroke="#d6ddd8" rx="15"/><rect width="1006.72" height="30" x="380" y="369" fill="#1f9d55" rx="15"/><rect width="41.13" height="30" x="1386.72" y="369" fill="#c13d36" rx="15"/><text x="883.36" y="389" fill="#fff" font-family="Segoe UI, Arial, sans-serif" font-size="16" font-weight="700" text-anchor="middle">89.1%</text><text x="368" y="442" fill="#1f2623" font-family="Segoe UI, Arial, sans-serif" font-size="20" text-anchor="end">6. anthropic/claude-haiku-4.5 (high)</text><rect width="1130" height="30" x="380" y="421" fill="#eef3f0" stroke="#d6ddd8" rx="15"/><rect width="986.15" height="30" x="380" y="421" fill="#1f9d55" rx="15"/><rect width="41.13" height="30" x="1366.15" y="421" fill="#c13d36" rx="15"/><text x="873.08" y="441" fill="#fff" font-family="Segoe UI, Arial, sans-serif" font-size="16" font-weight="700" text-anchor="middle">87.3%</text><text x="368" y="494" fill="#1f2623" font-family="Segoe UI, Arial, sans-serif" font-size="20" text-anchor="end">7. anthropic/claude-haiku-4.5 (none)</text><rect width="1130" height="30" x="380" y="473" fill="#eef3f0" stroke="#d6ddd8" rx="15"/><rect width="924.57" height="30" x="380" y="473" fill="#1f9d55" rx="15"/><rect width="61.59" height="30" x="1304.57" y="473" fill="#c13d36" rx="15"/><text x="842.28" y="493" fill="#fff" font-family="Segoe UI, Arial, sans-serif" font-size="16" font-weight="700" text-anchor="middle">81.8%</text><text x="368" y="546" fill="#1f2623" font-family="Segoe UI, Arial, sans-serif" font-size="20" text-anchor="end">8. anthropic/claude-opus-4.5 (none)</text><rect width="1130" height="30" x="380" y="525" fill="#eef3f0" stroke="#d6ddd8" rx="15"/><rect width="904" height="30" x="380" y="525" fill="#1f9d55" rx="15"/><rect width="20.57" height="30" x="1284" y="525" fill="#c13d36" rx="15"/><text x="832" y="545" fill="#fff" font-family="Segoe UI, Arial, sans-serif" font-size="16" font-weight="700" text-anchor="middle">80.0%</text><text x="368" y="598" fill="#1f2623" font-family="Segoe UI, Arial, sans-serif" font-size="20" text-anchor="end">9. qwen/qwen3.5-397b-a17b (none)</text><rect width="1130" height="30" x="380" y="577" fill="#eef3f0" stroke="#d6ddd8" rx="15"/><rect width="739.59" height="30" x="380" y="577" fill="#1f9d55" rx="15"/><rect width="143.85" height="30" x="1119.59" y="577" fill="#c13d36" rx="15"/><text x="749.79" y="597" fill="#fff" font-family="Segoe UI, Arial, sans-serif" font-size="16" font-weight="700" text-anchor="middle">65.5%</text><text x="1191.51" y="597" fill="#fff" font-family="Segoe UI, Arial, sans-serif" font-size="16" font-weight="700" text-anchor="middle">12.7%</text><text x="368" y="650" fill="#1f2623" font-family="Segoe UI, Arial, sans-serif" font-size="20" text-anchor="end">10. anthropic/claude-sonnet-4.5 (high)</text><rect width="1130" height="30" x="380" y="629" fill="#eef3f0" stroke="#d6ddd8" rx="15"/><rect width="739.59" height="30" x="380" y="629" fill="#1f9d55" rx="15"/><rect width="184.87" height="30" x="1119.59" y="629" fill="#c13d36" rx="15"/><text x="749.79" y="649" fill="#fff" font-family="Segoe UI, Arial, sans-serif" font-size="16" font-weight="700" text-anchor="middle">65.5%</text><text x="1212.02" y="649" fill="#fff" font-family="Segoe UI, Arial, sans-serif" font-size="16" font-weight="700" text-anchor="middle">16.4%</text><text x="368" y="702" fill="#1f2623" font-family="Segoe UI, Arial, sans-serif" font-size="20" text-anchor="end">11. qwen/qwen3.5-397b-a17b (high)</text><rect width="1130" height="30" x="380" y="681" fill="#eef3f0" stroke="#d6ddd8" rx="15"/><rect width="595.85" height="30" x="380" y="681" fill="#1f9d55" rx="15"/><rect width="184.87" height="30" x="975.85" y="681" fill="#c13d36" rx="15"/><text x="677.92" y="701" fill="#fff" font-family="Segoe UI, Arial, sans-serif" font-size="16" font-weight="700" text-anchor="middle">52.7%</text><text x="1068.28" y="701" fill="#fff" font-family="Segoe UI, Arial, sans-serif" font-size="16" font-weight="700" text-anchor="middle">16.4%</text><text x="368" y="754" fill="#1f2623" font-family="Segoe UI, Arial, sans-serif" font-size="20" text-anchor="end">12. anthropic/claude-sonnet-4.5 (none)</text><rect width="1130" height="30" x="380" y="733" fill="#eef3f0" stroke="#d6ddd8" rx="15"/><rect width="595.85" height="30" x="380" y="733" fill="#1f9d55" rx="15"/><rect width="205.43" height="30" x="975.85" y="733" fill="#c13d36" rx="15"/><text x="677.92" y="753" fill="#fff" font-family="Segoe UI, Arial, sans-serif" font-size="16" font-weight="700" text-anchor="middle">52.7%</text><text x="1078.57" y="753" fill="#fff" font-family="Segoe UI, Arial, sans-serif" font-size="16" font-weight="700" text-anchor="middle">18.2%</text><text x="1546" y="820" fill="#5f6f6a" font-family="Segoe UI, Arial, sans-serif" font-size="16" text-anchor="end">Updated: 2026-02-25 • Source: data/latest/leaderboard.csv</text></svg>